<svg xmlns="http://www.w3.org/2000/svg" width="160" height="160" viewBox="0 0 160 160" role="img" aria-label="feedback particle 37">
  <defs>
    <filter id="shadow" x="-20%" y="-20%" width="140%" height="150%">
      <feDropShadow dx="0" dy="8" stdDeviation="7" flood-color="#263238" flood-opacity=".16"/>
    </filter>
    <linearGradient id="shine" x1="0" y1="0" x2="1" y2="1">
      <stop offset="0" stop-color="#FFFFFF" stop-opacity=".55"/>
      <stop offset=".65" stop-color="#FFFFFF" stop-opacity=".08"/>
    </linearGradient>
  </defs>
<circle cx="87.5" cy="59.2" r="5" fill="#5AA9E6" opacity=".9"/>
<rect x="108.8" y="61.3" width="12" height="12" rx="3" fill="#F9C74F" transform="rotate(306.0 114.8 67.3)" opacity=".85"/>
<path d="M123.7 81.3l4 7 8 1-6 5 2 8-8-4-8 4 2-8-6-5 8-1 4-7Z" fill="#F36F5B" opacity=".88"/>
<circle cx="83.2" cy="116.6" r="8" fill="#65A765" opacity=".9"/>
<rect x="48.8" y="90.1" width="12" height="12" rx="3" fill="#7A6FF0" transform="rotate(357.0 54.8 96.1)" opacity=".85"/>
<path d="M29.1 67.4l4 7 8 1-6 5 2 8-8-4-8 4 2-8-6-5 8-1 4-7Z" fill="#2F6F6D" opacity=".88"/>
<circle cx="66.8" cy="62.0" r="7" fill="#5AA9E6" opacity=".9"/>
<circle cx="80" cy="80" r="37" fill="#5AA9E6" filter="url(#shadow)"/><path d="M58 82l15 15 31-36" fill="none" stroke="#FFFDF7" stroke-width="10" stroke-linecap="round" stroke-linejoin="round"/>
  <circle cx="80" cy="80" r="48" fill="none" stroke="#65A765" stroke-width="5" opacity=".24"/>
</svg>
