<svg xmlns="http://www.w3.org/2000/svg" width="160" height="160" viewBox="0 0 160 160" role="img" aria-label="feedback particle 11">
  <defs>
    <filter id="shadow" x="-20%" y="-20%" width="140%" height="150%">
      <feDropShadow dx="0" dy="8" stdDeviation="7" flood-color="#263238" flood-opacity=".16"/>
    </filter>
    <linearGradient id="shine" x1="0" y1="0" x2="1" y2="1">
      <stop offset="0" stop-color="#FFFFFF" stop-opacity=".55"/>
      <stop offset=".65" stop-color="#FFFFFF" stop-opacity=".08"/>
    </linearGradient>
  </defs>
<circle cx="95.7" cy="96.1" r="5" fill="#7A6FF0" opacity=".9"/>
<rect x="68.9" y="110.6" width="12" height="12" rx="3" fill="#2F6F6D" transform="rotate(64.0 74.9 116.6)" opacity=".85"/>
<path d="M36.3 81.3l4 7 8 1-6 5 2 8-8-4-8 4 2-8-6-5 8-1 4-7Z" fill="#5AA9E6" opacity=".88"/>
<circle cx="58.4" cy="67.3" r="8" fill="#F9C74F" opacity=".9"/>
<rect x="62.0" y="53.2" width="12" height="12" rx="3" fill="#F36F5B" transform="rotate(115.0 68.0 59.2)" opacity=".85"/>
<path d="M107.0 38.6l4 7 8 1-6 5 2 8-8-4-8 4 2-8-6-5 8-1 4-7Z" fill="#65A765" opacity=".88"/>
<circle cx="102.8" cy="77.3" r="7" fill="#7A6FF0" opacity=".9"/>
<path d="M42 96c11-36 21-55 38-55s27 19 38 55c-22 17-54 17-76 0Z" fill="#7A6FF0" filter="url(#shadow)"/><circle cx="80" cy="73" r="13" fill="#FFFDF7" opacity=".75"/>
  <circle cx="80" cy="80" r="48" fill="none" stroke="#F9C74F" stroke-width="5" opacity=".24"/>
</svg>
