<svg xmlns="http://www.w3.org/2000/svg" width="160" height="160" viewBox="0 0 160 160" role="img" aria-label="feedback particle 13">
  <defs>
    <filter id="shadow" x="-20%" y="-20%" width="140%" height="150%">
      <feDropShadow dx="0" dy="8" stdDeviation="7" flood-color="#263238" flood-opacity=".16"/>
    </filter>
    <linearGradient id="shine" x1="0" y1="0" x2="1" y2="1">
      <stop offset="0" stop-color="#FFFFFF" stop-opacity=".55"/>
      <stop offset=".65" stop-color="#FFFFFF" stop-opacity=".08"/>
    </linearGradient>
  </defs>
<circle cx="68.2" cy="98.9" r="5" fill="#5AA9E6" opacity=".9"/>
<rect x="37.4" y="79.1" width="12" height="12" rx="3" fill="#F9C74F" transform="rotate(138.0 43.4 85.1)" opacity=".85"/>
<path d="M42.7 55.0l4 7 8 1-6 5 2 8-8-4-8 4 2-8-6-5 8-1 4-7Z" fill="#F36F5B" opacity=".88"/>
<circle cx="81.6" cy="43.1" r="8" fill="#65A765" opacity=".9"/>
<rect x="104.3" y="61.4" width="12" height="12" rx="3" fill="#7A6FF0" transform="rotate(189.0 110.3 67.4)" opacity=".85"/>
<path d="M129.0 80.2l4 7 8 1-6 5 2 8-8-4-8 4 2-8-6-5 8-1 4-7Z" fill="#2F6F6D" opacity=".88"/>
<circle cx="89.0" cy="100.3" r="7" fill="#5AA9E6" opacity=".9"/>
<circle cx="80" cy="80" r="37" fill="#5AA9E6" filter="url(#shadow)"/><path d="M58 82l15 15 31-36" fill="none" stroke="#FFFDF7" stroke-width="10" stroke-linecap="round" stroke-linejoin="round"/>
  <circle cx="80" cy="80" r="48" fill="none" stroke="#65A765" stroke-width="5" opacity=".24"/>
</svg>
