<svg xmlns="http://www.w3.org/2000/svg" width="160" height="160" viewBox="0 0 160 160" role="img" aria-label="feedback particle 42">
  <defs>
    <filter id="shadow" x="-20%" y="-20%" width="140%" height="150%">
      <feDropShadow dx="0" dy="8" stdDeviation="7" flood-color="#263238" flood-opacity=".16"/>
    </filter>
    <linearGradient id="shine" x1="0" y1="0" x2="1" y2="1">
      <stop offset="0" stop-color="#FFFFFF" stop-opacity=".55"/>
      <stop offset=".65" stop-color="#FFFFFF" stop-opacity=".08"/>
    </linearGradient>
  </defs>
<circle cx="70.6" cy="100.1" r="5" fill="#2F6F6D" opacity=".9"/>
<rect x="38.3" y="83.6" width="12" height="12" rx="3" fill="#5AA9E6" transform="rotate(131.0 44.3 89.6)" opacity=".85"/>
<path d="M38.7 57.1l4 7 8 1-6 5 2 8-8-4-8 4 2-8-6-5 8-1 4-7Z" fill="#F9C74F" opacity=".88"/>
<circle cx="78.8" cy="43.1" r="8" fill="#F36F5B" opacity=".9"/>
<rect x="101.5" y="59.3" width="12" height="12" rx="3" fill="#65A765" transform="rotate(182.0 107.5 65.3)" opacity=".85"/>
<path d="M130.4 75.8l4 7 8 1-6 5 2 8-8-4-8 4 2-8-6-5 8-1 4-7Z" fill="#7A6FF0" opacity=".88"/>
<circle cx="91.5" cy="99.1" r="7" fill="#2F6F6D" opacity=".9"/>
<path d="M80 36l12 27 29 3-22 19 7 29-26-15-26 15 7-29-22-19 29-3 12-27Z" fill="#2F6F6D" filter="url(#shadow)"/>
  <circle cx="80" cy="80" r="48" fill="none" stroke="#F36F5B" stroke-width="5" opacity=".24"/>
</svg>
