<svg xmlns="http://www.w3.org/2000/svg" width="160" height="160" viewBox="0 0 160 160" role="img" aria-label="feedback particle 51">
  <defs>
    <filter id="shadow" x="-20%" y="-20%" width="140%" height="150%">
      <feDropShadow dx="0" dy="8" stdDeviation="7" flood-color="#263238" flood-opacity=".16"/>
    </filter>
    <linearGradient id="shine" x1="0" y1="0" x2="1" y2="1">
      <stop offset="0" stop-color="#FFFFFF" stop-opacity=".55"/>
      <stop offset=".65" stop-color="#FFFFFF" stop-opacity=".08"/>
    </linearGradient>
  </defs>
<circle cx="81.2" cy="102.0" r="5" fill="#F36F5B" opacity=".9"/>
<rect x="46.5" y="98.8" width="12" height="12" rx="3" fill="#65A765" transform="rotate(104.0 52.5 104.8)" opacity=".85"/>
<path d="M29.6 66.6l4 7 8 1-6 5 2 8-8-4-8 4 2-8-6-5 8-1 4-7Z" fill="#7A6FF0" opacity=".88"/>
<circle cx="68.5" cy="48.0" r="8" fill="#2F6F6D" opacity=".9"/>
<rect x="87.3" y="53.5" width="12" height="12" rx="3" fill="#5AA9E6" transform="rotate(155.0 93.3 59.5)" opacity=".85"/>
<path d="M128.5 58.6l4 7 8 1-6 5 2 8-8-4-8 4 2-8-6-5 8-1 4-7Z" fill="#F9C74F" opacity=".88"/>
<circle cx="99.3" cy="92.0" r="7" fill="#F36F5B" opacity=".9"/>
<path d="M80 36l12 27 29 3-22 19 7 29-26-15-26 15 7-29-22-19 29-3 12-27Z" fill="#F36F5B" filter="url(#shadow)"/>
  <circle cx="80" cy="80" r="48" fill="none" stroke="#2F6F6D" stroke-width="5" opacity=".24"/>
</svg>
