<svg xmlns="http://www.w3.org/2000/svg" width="160" height="160" viewBox="0 0 160 160" role="img" aria-label="feedback particle 64">
  <defs>
    <filter id="shadow" x="-20%" y="-20%" width="140%" height="150%">
      <feDropShadow dx="0" dy="8" stdDeviation="7" flood-color="#263238" flood-opacity=".16"/>
    </filter>
    <linearGradient id="shine" x1="0" y1="0" x2="1" y2="1">
      <stop offset="0" stop-color="#FFFFFF" stop-opacity=".55"/>
      <stop offset=".65" stop-color="#FFFFFF" stop-opacity=".08"/>
    </linearGradient>
  </defs>
<circle cx="59.7" cy="69.7" r="5" fill="#65A765" opacity=".9"/>
<rect x="66.9" y="37.7" width="12" height="12" rx="3" fill="#7A6FF0" transform="rotate(225.0 72.9 43.7)" opacity=".85"/>
<path d="M112.8 53.1l4 7 8 1-6 5 2 8-8-4-8 4 2-8-6-5 8-1 4-7Z" fill="#2F6F6D" opacity=".88"/>
<circle cx="103.0" cy="80.6" r="8" fill="#5AA9E6" opacity=".9"/>
<rect x="96.8" y="91.3" width="12" height="12" rx="3" fill="#F9C74F" transform="rotate(276.0 102.8 97.3)" opacity=".85"/>
<path d="M68.5 106.1l4 7 8 1-6 5 2 8-8-4-8 4 2-8-6-5 8-1 4-7Z" fill="#F36F5B" opacity=".88"/>
<circle cx="59.3" cy="89.6" r="7" fill="#65A765" opacity=".9"/>
<circle cx="80" cy="80" r="37" fill="#65A765" filter="url(#shadow)"/><path d="M58 82l15 15 31-36" fill="none" stroke="#FFFDF7" stroke-width="10" stroke-linecap="round" stroke-linejoin="round"/>
  <circle cx="80" cy="80" r="48" fill="none" stroke="#5AA9E6" stroke-width="5" opacity=".24"/>
</svg>
