<svg xmlns="http://www.w3.org/2000/svg" viewBox="0 0 360 480" role="img" aria-labelledby="title desc">
  <title id="title">das Haar vocabulary card</title>
  <desc id="desc">A German vocabulary card for das Haar, meaning hair.</desc>
  <rect x="10" y="10" width="340" height="460" rx="24" fill="#FFFDF7" stroke="#263238" stroke-width="8"/>
  <rect x="230" y="24" width="106" height="34" rx="17" fill="#E8F1F2" stroke="#D7E0DF" stroke-width="3"/>
  <text x="283" y="47" text-anchor="middle" fill="#2F6F6D" font-family="Inter, Arial, sans-serif" font-size="15" font-weight="900">NOUN</text>
  <rect x="24" y="24" width="72" height="42" rx="21" fill="#5AA9E6" stroke="#263238" stroke-width="5"/><text x="60" y="53" text-anchor="middle" fill="#263238" font-family="Inter, Arial, sans-serif" font-size="22" font-weight="900">das</text>
  
  <circle cx="180" cy="214" r="78" fill="#F4C6A6" stroke="#263238" stroke-width="7"/>
  <path d="M105 203c4-69 38-106 85-104 47 2 73 43 65 106-31-35-94-41-150-2Z" fill="#6B3E26" stroke="#263238" stroke-width="7" stroke-linejoin="round"/>
  <path d="M132 145c-12 46-8 88 18 126M174 127c-18 47-16 94 7 142M217 141c13 41 10 83-9 126" fill="none" stroke="#8A5A3C" stroke-width="9" stroke-linecap="round"/>
  <circle cx="154" cy="216" r="7" fill="#263238"/>
  <circle cx="206" cy="216" r="7" fill="#263238"/>
  <path d="M160 248c13 10 27 10 40 0" fill="none" stroke="#263238" stroke-width="6" stroke-linecap="round"/>

  <text x="180" y="356" text-anchor="middle" fill="#263238" font-family="Inter, Arial, sans-serif" font-size="40" font-weight="900">das Haar</text>
  <text x="180" y="420" text-anchor="middle" fill="#2F6F6D" font-family="Inter, Arial, sans-serif" font-size="20" font-weight="800">hair</text>
</svg>
