<svg xmlns="http://www.w3.org/2000/svg" viewBox="0 0 1200 720" role="img" aria-labelledby="title desc">
  <title id="title">Friendly German town background</title>
  <desc id="desc">A cheerful street with homes, a bakery, and signs for German vocabulary lessons.</desc>
  <rect width="1200" height="720" fill="#DDF2F8"/>
  <circle cx="1000" cy="115" r="52" fill="#F9C74F"/>
  <rect y="455" width="1200" height="265" fill="#E8F1F2"/>
  <path d="M0 580c250-65 475-65 700 0s380 60 500-5v145H0Z" fill="#C9E4C5"/>
  <g stroke="#263238" stroke-width="6" stroke-linejoin="round">
    <path d="M95 260h245v245H95Z" fill="#FFFDF7"/>
    <path d="M70 260 218 142l148 118Z" fill="#F36F5B"/>
    <rect x="150" y="360" width="62" height="145" rx="8" fill="#5AA9E6"/>
    <rect x="242" y="332" width="62" height="62" rx="8" fill="#F9C74F"/>
    <path d="M440 300h300v205H440Z" fill="#FFFDF7"/>
    <path d="M415 300h350l-38-88H453Z" fill="#65A765"/>
    <rect x="505" y="360" width="170" height="68" rx="10" fill="#F9C74F"/>
    <text x="527" y="405" font-family="Inter, Arial, sans-serif" font-size="34" font-weight="800" fill="#263238">Bäckerei</text>
    <path d="M840 245h250v260H840Z" fill="#FFFDF7"/>
    <path d="M815 245 965 125l150 120Z" fill="#5AA9E6"/>
    <rect x="930" y="365" width="70" height="140" rx="8" fill="#F36F5B"/>
  </g>
  <g fill="#2F6F6D" stroke="#263238" stroke-width="5">
    <rect x="72" y="520" width="1056" height="54" rx="27"/>
    <circle cx="290" cy="547" r="9" fill="#FFFDF7" stroke="none"/>
    <circle cx="600" cy="547" r="9" fill="#FFFDF7" stroke="none"/>
    <circle cx="910" cy="547" r="9" fill="#FFFDF7" stroke="none"/>
  </g>
</svg>

