<svg xmlns="http://www.w3.org/2000/svg" viewBox="0 0 1200 720" role="img" aria-labelledby="title desc">
  <title id="title">Sunny classroom background</title>
  <desc id="desc">A bright classroom with desks, plants, a window, and a German learning board.</desc>
  <rect width="1200" height="720" fill="#FFFDF7"/>
  <rect y="500" width="1200" height="220" fill="#E8F1F2"/>
  <rect x="70" y="80" width="350" height="250" rx="18" fill="#BFE2F7" stroke="#263238" stroke-width="6"/>
  <circle cx="155" cy="155" r="42" fill="#F9C74F"/>
  <path d="M85 278c90-70 170-70 320 0" fill="#65A765"/>
  <rect x="510" y="88" width="560" height="270" rx="18" fill="#2F6F6D" stroke="#263238" stroke-width="6"/>
  <text x="570" y="190" fill="#FFFDF7" font-family="Inter, Arial, sans-serif" font-size="54" font-weight="800">Guten Morgen!</text>
  <text x="575" y="255" fill="#F9C74F" font-family="Inter, Arial, sans-serif" font-size="34" font-weight="700">Heute lernen wir Deutsch.</text>
  <g fill="#F36F5B" stroke="#263238" stroke-width="5">
    <rect x="150" y="460" width="240" height="34" rx="10"/>
    <path d="M190 494v120M350 494v120"/>
    <rect x="795" y="460" width="250" height="34" rx="10"/>
    <path d="M835 494v120M1000 494v120"/>
  </g>
  <g transform="translate(548 435)">
    <rect width="115" height="145" rx="14" fill="#F9C74F" stroke="#263238" stroke-width="5"/>
    <rect x="17" y="22" width="81" height="18" rx="9" fill="#FFFDF7"/>
    <rect x="17" y="55" width="65" height="18" rx="9" fill="#FFFDF7"/>
  </g>
  <g transform="translate(54 420)">
    <rect x="28" y="90" width="92" height="108" rx="14" fill="#65A765" stroke="#263238" stroke-width="5"/>
    <path d="M74 91c-58-54-7-116 0-24 7-92 58-30 0 24Z" fill="#5AA9E6" stroke="#263238" stroke-width="5" stroke-linejoin="round"/>
  </g>
</svg>

