<svg xmlns="http://www.w3.org/2000/svg" viewBox="0 0 420 560" role="img" aria-labelledby="title desc">
  <title id="title">Friendly learning guide</title>
  <desc id="desc">A smiling human German tutor holding a flashcard.</desc>
  <rect width="420" height="560" rx="28" fill="#FFFDF7"/>
  <ellipse cx="210" cy="505" rx="135" ry="22" fill="#D7E0DF"/>
  <path d="M132 252c-45 44-54 105-44 188h244c11-84-2-148-45-188Z" fill="#5AA9E6" stroke="#263238" stroke-width="7"/>
  <circle cx="210" cy="146" r="88" fill="#F4C6A6" stroke="#263238" stroke-width="7"/>
  <path d="M126 140c7-80 55-113 108-101 54 13 81 60 61 130-33-28-89-32-169-29Z" fill="#263238"/>
  <circle cx="178" cy="153" r="8" fill="#263238"/>
  <circle cx="242" cy="153" r="8" fill="#263238"/>
  <path d="M184 196c19 16 40 16 58 0" fill="none" stroke="#263238" stroke-width="7" stroke-linecap="round"/>
  <path d="M130 306 64 390" stroke="#263238" stroke-width="18" stroke-linecap="round"/>
  <path d="M290 306 350 377" stroke="#263238" stroke-width="18" stroke-linecap="round"/>
  <rect x="236" y="332" width="132" height="102" rx="14" fill="#F9C74F" stroke="#263238" stroke-width="6"/>
  <text x="260" y="394" fill="#263238" font-family="Inter, Arial, sans-serif" font-size="32" font-weight="900">Hallo!</text>
  <rect x="162" y="252" width="96" height="32" rx="16" fill="#FFFDF7"/>
  <path d="M159 438v56M261 438v56" stroke="#263238" stroke-width="18" stroke-linecap="round"/>
</svg>

